<?xml version="1.0" standalone="no"?>
<!DOCTYPE svg PUBLIC "-//W3C//DTD SVG 20010904//EN"
 "http://www.w3.org/TR/2001/REC-SVG-20010904/DTD/svg10.dtd">
<svg version="1.0" xmlns="http://www.w3.org/2000/svg"
 width="64.000000pt" height="64.000000pt" viewBox="0 0 64.000000 64.000000"
 preserveAspectRatio="xMidYMid meet">

<g transform="translate(0.000000,64.000000) scale(0.100000,-0.100000)"
fill="#000000" stroke="none">
<path d="M235 566 c-91 -29 -149 -78 -184 -156 -54 -119 10 -262 142 -320 136
-60 306 -16 379 99 39 63 35 69 -17 23 -79 -70 -206 -86 -308 -39 -73 33 -107
79 -107 143 0 31 7 61 20 82 14 22 20 50 20 87 l0 55 60 -30 c75 -38 108 -38
168 0 l47 29 5 -52 c3 -29 15 -72 28 -97 12 -25 22 -56 22 -70 -1 -40 -32 -98
-70 -126 l-35 -26 35 7 c77 16 139 75 160 154 10 39 9 48 -15 97 -59 120 -215
183 -350 140z"/>
<path d="M242 337 c-15 -17 1 -42 23 -33 18 6 17 37 -1 43 -6 2 -16 -2 -22
-10z"/>
<path d="M383 334 c-8 -21 13 -42 28 -27 13 13 5 43 -11 43 -6 0 -13 -7 -17
-16z"/>
</g>
</svg>
